<svg id="Layer_1" data-name="Layer 1" xmlns="http://www.w3.org/2000/svg" xmlns:xlink="http://www.w3.org/1999/xlink" viewBox="0 0 175.87 175.87"><defs><style>.cls-1{fill:url(#linear-gradient);}.cls-2{fill:url(#linear-gradient-2);}.cls-3{fill:#233e80;}.cls-4{fill:url(#linear-gradient-3);}.cls-5{fill:url(#linear-gradient-4);}.cls-6{fill:url(#linear-gradient-5);}.cls-7{fill:url(#linear-gradient-6);}.cls-8{fill:url(#linear-gradient-7);}.cls-9{fill:#fff;}.cls-10{fill:url(#linear-gradient-8);}.cls-11{fill:url(#linear-gradient-9);}.cls-12{fill:url(#linear-gradient-10);}</style><linearGradient id="linear-gradient" x1="143.7" y1="87.29" x2="154.04" y2="87.29" gradientUnits="userSpaceOnUse"><stop offset="0" stop-color="#1e3f77"/><stop offset="0.38" stop-color="#1069aa"/><stop offset="0.5" stop-color="#51a5db"/><stop offset="0.65" stop-color="#0f8acb"/><stop offset="1" stop-color="#253161"/></linearGradient><linearGradient id="linear-gradient-2" x1="2046.37" y1="-2461.38" x2="2062.58" y2="-2446.18" gradientTransform="translate(2611.19 2142.52) rotate(-90)" gradientUnits="userSpaceOnUse"><stop offset="0" stop-color="#bab2d6"/><stop offset="0.38" stop-color="#fff"/><stop offset="0.5" stop-color="#fff"/><stop offset="0.65" stop-color="#ecebf6"/><stop offset="1" stop-color="#b9b3c1"/></linearGradient><linearGradient id="linear-gradient-3" x1="2045.79" y1="-2453.08" x2="2059.61" y2="-2453.08" gradientTransform="translate(2611.19 2142.52) rotate(-90)" xlink:href="#linear-gradient"/><linearGradient id="linear-gradient-4" x1="2046.37" y1="-2601.72" x2="2062.58" y2="-2586.52" xlink:href="#linear-gradient-2"/><linearGradient id="linear-gradient-5" x1="-4.18" y1="87.29" x2="6.17" y2="87.29" xlink:href="#linear-gradient"/><linearGradient id="linear-gradient-6" x1="2045.79" y1="-2593.42" x2="2059.61" y2="-2593.42" gradientTransform="translate(2611.19 2142.52) rotate(-90)" xlink:href="#linear-gradient"/><linearGradient id="linear-gradient-7" x1="121.76" y1="4599.44" x2="147.92" y2="4599.63" gradientTransform="translate(-53.94 -4581.81)" xlink:href="#linear-gradient"/><linearGradient id="linear-gradient-8" x1="131.81" y1="4599.58" x2="145.63" y2="4599.58" gradientTransform="translate(-53.94 -4581.81)" xlink:href="#linear-gradient"/><linearGradient id="linear-gradient-9" x1="79.74" y1="149.8" x2="95.95" y2="165" xlink:href="#linear-gradient"/><linearGradient id="linear-gradient-10" x1="79.11" y1="158.1" x2="92.93" y2="158.1" xlink:href="#linear-gradient"/></defs><title>Untitled-1</title><polygon class="cls-1" points="147.87 91.93 153.26 87.29 147.87 82.65 147.87 91.93"/><rect class="cls-2" x="140.34" y="82.65" width="35.54" height="9.29"/><polygon class="cls-3" points="175.87 91.93 170.48 87.29 175.87 82.65 175.87 91.93"/><polygon class="cls-4" points="170.48 87.29 145.73 87.29 140.34 91.93 175.87 91.93 170.48 87.29"/><rect class="cls-5" y="82.65" width="35.54" height="9.29"/><polygon class="cls-6" points="0 91.93 5.39 87.29 0 82.65 0 91.93"/><polygon class="cls-3" points="35.54 91.93 30.14 87.29 35.54 82.65 35.54 91.93"/><polygon class="cls-7" points="30.14 87.29 5.39 87.29 0 91.93 35.54 91.93 30.14 87.29"/><rect class="cls-8" x="82.66" width="9.29" height="35.54"/><polygon class="cls-9" points="82.66 0 87.3 5.39 91.94 0 82.66 0"/><polygon class="cls-3" points="82.66 35.54 87.3 30.14 91.94 35.54 82.66 35.54"/><polygon class="cls-10" points="87.3 30.14 87.3 5.39 82.66 0 82.66 35.54 87.3 30.14"/><rect class="cls-11" x="83.95" y="140.33" width="9.29" height="35.54"/><polygon class="cls-9" points="83.95 140.33 88.59 145.72 93.24 140.33 83.95 140.33"/><polygon class="cls-3" points="83.95 175.87 88.59 170.47 93.24 175.87 83.95 175.87"/><polygon class="cls-12" points="88.55 170.47 88.55 145.72 83.9 140.33 83.9 175.87 88.55 170.47"/></svg>